<?xml version="1.0" encoding="UTF-8" standalone="no"?>
<svg
   fill="#000000"
   viewBox="0 0 50 50"
   width="100px"
   height="100px"
   version="1.1"
   id="svg4"
   xmlns="http://www.w3.org/2000/svg"
   xmlns:svg="http://www.w3.org/2000/svg">
  <defs
     id="defs8" />
  <g
     id="layer1">
    <g
       id="g30148"
       transform="translate(0.00196876,-2.276e-4)">
      <path
         style="fill:#26a8e0;fill-opacity:1;stroke:none;stroke-width:0.5px;stroke-linecap:butt;stroke-linejoin:miter;stroke-opacity:1"
         d="M 0.99753548,24.935718 H 12.131068 l 12.81631,17.881644 v 5.804735 l -6.425153,0.04249 -9.6207314,-5.133323 -6.7311127,-8.838835 z"
         id="path10730" />
      <path
         style="fill:#fcb12e;fill-opacity:1;stroke:none;stroke-width:0.5px;stroke-linecap:butt;stroke-linejoin:miter;stroke-opacity:1"
         d="M 1.1048544,24.986706 H 12.238387 L 25.054697,7.1050635 V 1.3003286 L 18.629544,1.2578342 9.0088125,6.3911575 2.2776998,15.229992 Z"
         id="path7040" />
      <path
         style="fill:#ed1c24;fill-opacity:1;stroke:none;stroke-width:0.5px;stroke-linecap:butt;stroke-linejoin:miter;stroke-opacity:1"
         d="M 48.998527,25.013752 H 37.864994 l -12.81631,17.881644 v 5.804735 l 6.425153,0.04249 9.620731,-5.133323 6.731113,-8.838835 z"
         id="path10730-6" />
      <path
         style="fill:#30b457;fill-opacity:1;stroke:none;stroke-width:0.5px;stroke-linecap:butt;stroke-linejoin:miter;stroke-opacity:1"
         d="M 48.891208,25.06474 H 37.757675 L 24.941365,7.1830984 v -5.804735 l 6.425153,-0.042494 9.620732,5.1333234 6.731112,8.8388332 z"
         id="path7040-0" />
      <path
         style="opacity:1;fill:#ffffff;stroke:none;stroke-width:3.77953;stroke-linecap:round"
         id="path1541"
         transform="matrix(6.8150286,0,0,6.8150286,-162.41328,102.32436)"
         d="m 27.5,-7.8762791 -0.948561,-2.5213149 -2.521314,-0.94856 2.521314,-0.948561 0.948561,-2.521314 0.948561,2.521314 2.521314,0.948561 -2.521314,0.94856 z" />
    </g>
  </g>
  <g
     id="layer2">
    <circle
       style="fill:#ffffff;stroke:none;stroke-width:10.9441;stroke-linecap:round"
       id="path1123-0"
       cx="25"
       cy="25"
       r="15.104481" />
    <circle
       style="fill:none;stroke:#ffffff;stroke-width:1.55716;stroke-linecap:round;stroke-miterlimit:4;stroke-dasharray:none"
       id="path1123"
       cx="25"
       cy="25"
       r="24.221418" />
    <g
       style="fill:#18335e;fill-opacity:1"
       id="g4449"
       transform="matrix(0.50336982,0,0,0.50336982,12.415754,12.415755)">
      <path
         d="M 47.16,21.221 41.25,20.255 C 40.904,19.069 40.431,17.929 39.839,16.85 l 3.45,-4.917 c 0.279,-0.397 0.231,-0.938 -0.112,-1.282 L 39.288,6.764 C 38.941,6.418 38.395,6.373 37.997,6.66 l -4.843,3.481 C 32.065,9.539 30.915,9.061 29.722,8.714 L 28.691,2.828 C 28.607,2.35 28.192,2 27.706,2 h -5.5 c -0.49,0 -0.908,0.355 -0.987,0.839 l -0.956,5.854 c -1.2,0.345 -2.352,0.818 -3.437,1.412 l -4.83,-3.45 C 11.597,6.37 11.054,6.416 10.707,6.761 L 6.82,10.648 c -0.343,0.343 -0.391,0.883 -0.112,1.28 l 3.399,4.863 c -0.605,1.095 -1.087,2.254 -1.438,3.46 l -5.831,0.971 c -0.482,0.08 -0.836,0.498 -0.836,0.986 v 5.5 c 0,0.485 0.348,0.9 0.825,0.985 l 5.831,1.034 c 0.349,1.203 0.831,2.362 1.438,3.46 L 6.655,38 c -0.284,0.397 -0.239,0.942 0.106,1.289 l 3.888,3.891 c 0.343,0.343 0.884,0.391 1.281,0.112 l 4.87,-3.411 c 1.093,0.601 2.248,1.078 3.445,1.424 l 0.976,5.861 C 21.3,47.647 21.717,48 22.206,48 h 5.5 c 0.485,0 0.9,-0.348 0.984,-0.825 l 1.045,-5.89 c 1.199,-0.353 2.348,-0.833 3.43,-1.435 l 4.905,3.441 c 0.398,0.281 0.938,0.232 1.282,-0.111 l 3.888,-3.891 c 0.346,-0.347 0.391,-0.894 0.104,-1.292 L 39.846,33.14 c 0.593,-1.08 1.064,-2.222 1.407,-3.408 l 5.918,-1.039 c 0.479,-0.084 0.827,-0.5 0.827,-0.985 v -5.5 C 47.999,21.718 47.644,21.3 47.16,21.221 Z M 25,32 c -3.866,0 -7,-3.134 -7,-7 0,-3.866 3.134,-7 7,-7 3.866,0 7,3.134 7,7 0,3.866 -3.134,7 -7,7 z"
         id="path4440"
         style="fill:#18335e;fill-opacity:1" />
    </g>
  </g>
</svg>
