<?xml version="1.0" encoding="UTF-8" standalone="no"?>
<svg
   fill="#000000"
   viewBox="0 0 50 50"
   width="100px"
   height="100px"
   version="1.1"
   id="svg4"
   xmlns="http://www.w3.org/2000/svg"
   xmlns:svg="http://www.w3.org/2000/svg">
  <defs
     id="defs8" />
  <g
     id="layer1">
    <g
       id="g30148"
       transform="translate(0.00196876,-2.276e-4)">
      <path
         style="fill:#26a8e0;fill-opacity:1;stroke:none;stroke-width:0.5px;stroke-linecap:butt;stroke-linejoin:miter;stroke-opacity:1"
         d="M 0.99753548,24.935718 H 12.131068 l 12.81631,17.881644 v 5.804735 l -6.425153,0.04249 -9.6207314,-5.133323 -6.7311127,-8.838835 z"
         id="path10730" />
      <path
         style="fill:#fcb12e;fill-opacity:1;stroke:none;stroke-width:0.5px;stroke-linecap:butt;stroke-linejoin:miter;stroke-opacity:1"
         d="M 1.1048544,24.986706 H 12.238387 L 25.054697,7.1050635 V 1.3003286 L 18.629544,1.2578342 9.0088125,6.3911575 2.2776998,15.229992 Z"
         id="path7040" />
      <path
         style="fill:#ed1c24;fill-opacity:1;stroke:none;stroke-width:0.5px;stroke-linecap:butt;stroke-linejoin:miter;stroke-opacity:1"
         d="M 48.998527,25.013752 H 37.864994 l -12.81631,17.881644 v 5.804735 l 6.425153,0.04249 9.620731,-5.133323 6.731113,-8.838835 z"
         id="path10730-6" />
      <path
         style="fill:#30b457;fill-opacity:1;stroke:none;stroke-width:0.5px;stroke-linecap:butt;stroke-linejoin:miter;stroke-opacity:1"
         d="M 48.891208,25.06474 H 37.757675 L 24.941365,7.1830984 v -5.804735 l 6.425153,-0.042494 9.620732,5.1333234 6.731112,8.8388332 z"
         id="path7040-0" />
      <path
         style="opacity:1;fill:#ffffff;stroke:none;stroke-width:3.77953;stroke-linecap:round"
         id="path1541"
         transform="matrix(6.8150286,0,0,6.8150286,-162.41328,102.32436)"
         d="m 27.5,-7.8762791 -0.948561,-2.5213149 -2.521314,-0.94856 2.521314,-0.948561 0.948561,-2.521314 0.948561,2.521314 2.521314,0.948561 -2.521314,0.94856 z" />
    </g>
  </g>
  <g
     id="layer2">
    <circle
       style="fill:#ffffff;stroke:none;stroke-width:10.9441;stroke-linecap:round"
       id="path1123-0"
       cx="25"
       cy="25"
       r="15.104481" />
    <circle
       style="fill:none;stroke:#ffffff;stroke-width:1.55716;stroke-linecap:round;stroke-miterlimit:4;stroke-dasharray:none"
       id="path1123"
       cx="25"
       cy="25"
       r="24.221418" />
    <g
       style="fill:#18335e;fill-opacity:1"
       id="g2532"
       transform="matrix(0.86968385,0,0,0.86968385,11.323068,11.954742)">
      <path
         d="M 23.5,3 A 2.5,2.5 0 0 0 21.041016,5.0605469 C 15.332519,3.3128646 12.953059,9.7934728 11.183594,11.15625 9.5774247,12.395609 4.9027684,12.165642 4.3417969,15 c -2.902e-4,0.0015 -0.00167,0.0024 -0.00195,0.0039 -0.7140006,2.019438 1.3663313,4.70693 5.6640621,7.455078 C 10.003741,22.472995 10,22.48595 10,22.5 c 0,1.933 1.566953,3.5 3.501953,3.5 0.761917,0 1.460685,-0.250309 2.035156,-0.664062 C 17.98551,26.337785 20.373499,27 21.826172,27 c 1.204,0 2.398437,-0.544219 2.773437,-1.199219 1.976,-2.116 -0.293468,-5.87625 -0.230468,-7.90625 0.05849,-1.944849 2.806264,-6.898563 0.476562,-10.2890622 A 2.5,2.5 0 0 0 26,5.5 2.5,2.5 0 0 0 23.5,3 Z M 7.3554688,15.949219 c 1.564,0 4.5374062,0.74775 8.1914062,2.84375 4.505,2.585 6.730156,5.011297 7.160156,6.029297 C 22.492031,24.912266 22.174172,25 21.826172,25 20.812557,25 18.899851,24.505713 16.78125,23.679688 16.914294,23.309627 17,22.915912 17,22.5 17,20.567 15.433953,19 13.501953,19 c -1.183881,0 -2.2256,0.59019 -2.859375,1.488281 -3.0027966,-1.994689 -4.185829,-3.5686 -4.4042968,-4.382812 0.287,-0.083 0.6921875,-0.15625 1.1171876,-0.15625 z"
         id="path2523"
         style="fill:#18335e;fill-opacity:1" />
    </g>
  </g>
</svg>
