<?xml version="1.0" encoding="UTF-8" standalone="no"?>
<svg
	fill="#000000"
	viewBox="0 0 50 50"
	width="100px"
	height="100px"
	version="1.1"
	id="svg4"
	xmlns="http://www.w3.org/2000/svg"
	xmlns:svg="http://www.w3.org/2000/svg">
	<defs
		id="defs8">
	<rect
		x="17.677669"
		y="20.397311"
		width="185.0135"
		height="85.408062"
		id="rect6297" />
	</defs>
	<g id="layer1">
		<g id="g30148" transform="translate(0.00196876,-2.276e-4)">
			<circle
				style="fill:#ffffff;stroke:#ffffff;stroke-width:1.55716;stroke-linecap:round;stroke-miterlimit:4;stroke-dasharray:none"
				id="path1123"
				cx="25"
				cy="25"
				r="24.221418" 
				/>
			<!-- Yellow, Green, Red, Blue -->
				<path
					style="fill:#fcb12e;fill-opacity:1;stroke:none;stroke-width:0.5px;stroke-linecap:butt;stroke-linejoin:miter;stroke-opacity:1"
					d="M 1.1048544,24.986706 H 12.238387 L 25.054697,7.1050635 V 1.3003286 L 18.629544,1.2578342 9.0088125,6.3911575 2.2776998,15.229992 Z"
					id="path7040"	
				>
					<animate 
						attributeType="CSS" 
						attributeName="opacity" 
						from="0" 
						to="1"
						keyTimes="0;0.2;0.4;0.6;0.8;1" 		
						values="1;0;1;1;1;1"
						calcMode="linear"
						dur="5s"
						repeatCount="indefinite"
						/>
				</path>
				<path
					style="fill:#30b457;fill-opacity:1;stroke:none;stroke-width:0.5px;stroke-linecap:butt;stroke-linejoin:miter;stroke-opacity:1"
					d="M 48.891208,25.06474 H 37.757675 L 24.941365,7.1830984 v -5.804735 l 6.425153,-0.042494 9.620732,5.1333234 6.731112,8.8388332 z"
					id="path7040-0" 
				>
					<animate 
						attributeType="CSS" 
						attributeName="opacity" 
						from="0" 
						to="1"
						keyTimes="0;0.2;0.4;0.6;0.8;1" 		
						values="1;1;0;1;1;1"
						calcMode="linear"
						dur="5s"
						repeatCount="indefinite"
						/>
				</path>
				<path
					style="fill:#ed1c24;fill-opacity:1;stroke:none;stroke-width:0.5px;stroke-linecap:butt;stroke-linejoin:miter;stroke-opacity:1"
					d="M 48.998527,25.013752 H 37.864994 l -12.81631,17.881644 v 5.804735 l 6.425153,0.04249 9.620731,-5.133323 6.731113,-8.838835 z"
					id="path10730-6" 
				>
					<animate 
						attributeType="CSS" 
						attributeName="opacity" 
						from="0" 
						to="1"
						keyTimes="0;0.2;0.4;0.6;0.8;1" 		
						values="1;1;1;0;1;1"
						calcMode="linear"
						dur="5s"
						repeatCount="indefinite"
						/>
				</path>
				<path
					style="fill:#26a8e0;fill-opacity:1;stroke:none;stroke-width:0.5px;stroke-linecap:butt;stroke-linejoin:miter;stroke-opacity:1"
					d="M 0.99753548,24.935718 H 12.131068 l 12.81631,17.881644 v 5.804735 l -6.425153,0.04249 -9.6207314,-5.133323 -6.7311127,-8.838835 z"
					id="path10730" 
				>
					<animate 
						attributeType="CSS" 
						attributeName="opacity" 
						from="0" 
						to="1"
						keyTimes="0;0.2;0.4;0.6;0.8;1" 		
						values="1;1;1;1;0;1"
						calcMode="linear"
						dur="5s"
						repeatCount="indefinite"
						/>
				</path>
			<!-- Yellow, Green, Red, Blue -->
				
				<path
					style="opacity:1;fill:#ffffff;stroke:none;stroke-width:3.77953;stroke-linecap:round"
					id="path1541"
					transform="matrix(6.8150286,0,0,6.8150286,-162.41328,102.32436)"
					d="m 27.5,-7.8762791 -0.948561,-2.5213149 -2.521314,-0.94856 2.521314,-0.948561 0.948561,-2.521314 0.948561,2.521314 2.521314,0.948561 -2.521314,0.94856 z" 
				/>
		</g>
	</g>
	
	<g id="layer2">
		<circle
		   style="fill:#ffffff;stroke:none;stroke-width:10.9441;stroke-linecap:round"
		   id="path1123-0"
		   cx="25"
		   cy="25"
		   r="15.104481" 
		/>
		
		<circle
		   style="fill:none;stroke:#ffffff;stroke-width:1.55716;stroke-linecap:round;stroke-miterlimit:4;stroke-dasharray:none"
		   id="path1123"
		   cx="25"
		   cy="25"
		   r="24.221418" 
		/>
		
		<rect
		   style="fill:#18335e;fill-opacity:1;stroke:#ffffff;stroke-width:1.5;stroke-linecap:round;stroke-miterlimit:4;stroke-dasharray:none;paint-order:fill markers stroke"
		   id="rect1060"
		   width="39.809292"
		   height="10.500636"
		   x="5.0953541"
		   y="19.749681"
		   ry="4.2145586" 
		/>
		
		<g
			aria-label="Loading..."
			transform="matrix(0.5,0,0,0.5,0.09346488,11.446452)"
			id="text6295"
			style="font-size:13.3333px;line-height:0.95;letter-spacing:0px;word-spacing:0px;white-space:pre;shape-inside:url(#rect6297);fill:#ffffff">
			<path
			d="m 20.613925,22.025728 v 6.946597 h 3.919261 q 0.468749,0 0.716144,0.227864 0.253905,0.227864 0.253905,0.572915 0,0.351562 -0.247395,0.572916 -0.247395,0.214843 -0.722654,0.214843 h -4.667957 q -0.631509,0 -0.911456,-0.279947 -0.273437,-0.279948 -0.273437,-0.904946 v -7.350242 q 0,-0.585936 0.260416,-0.878904 0.266926,-0.292968 0.696613,-0.292968 0.436197,0 0.703123,0.292968 0.273437,0.286458 0.273437,0.878904 z"
			style="font-family:'Arial Rounded MT Bold';-inkscape-font-specification:'Arial Rounded MT Bold, '"
			id="path18928" />
			<path
			d="m 33.302695,27.110351 q 0,0.794269 -0.247396,1.46484 -0.247395,0.670571 -0.716144,1.152341 -0.468748,0.481769 -1.119788,0.742185 -0.651041,0.253906 -1.464841,0.253906 -0.807289,0 -1.451819,-0.260416 -0.644529,-0.260416 -1.119789,-0.742186 -0.468748,-0.48828 -0.716144,-1.14583 -0.240884,-0.664061 -0.240884,-1.46484 0,-0.80729 0.247395,-1.477861 0.247395,-0.670571 0.709633,-1.145831 0.462239,-0.475259 1.119789,-0.729164 0.657551,-0.260416 1.451819,-0.260416 0.80729,0 1.464841,0.260416 0.65755,0.260416 1.126299,0.742185 0.468749,0.48177 0.709633,1.145831 0.247396,0.66406 0.247396,1.46484 z m -1.78385,0 q 0,-1.087237 -0.48177,-1.692704 -0.475259,-0.605468 -1.282549,-0.605468 -0.520832,0 -0.917966,0.273437 -0.397134,0.266927 -0.611978,0.794269 -0.214843,0.527342 -0.214843,1.230466 0,0.696613 0.208333,1.217445 0.214843,0.520832 0.605467,0.800779 0.397135,0.273437 0.930987,0.273437 0.80729,0 1.282549,-0.605468 0.48177,-0.611977 0.48177,-1.686193 z"
			style="font-family:'Arial Rounded MT Bold';-inkscape-font-specification:'Arial Rounded MT Bold, '"
			id="path18930" />
			<path
			d="m 39.194606,29.721021 q -0.644529,0.501301 -1.249996,0.755207 -0.598957,0.247395 -1.347653,0.247395 -0.683592,0 -1.204424,-0.266927 -0.514322,-0.273436 -0.794269,-0.735675 -0.279947,-0.462238 -0.279947,-1.002601 0,-0.729165 0.462238,-1.243487 0.462239,-0.514321 1.269528,-0.690102 0.169271,-0.03906 0.839842,-0.175781 0.670571,-0.136719 1.14583,-0.247395 0.48177,-0.117188 1.041664,-0.279948 -0.03255,-0.703123 -0.286457,-1.028643 -0.247396,-0.33203 -1.035154,-0.33203 -0.677082,0 -1.022133,0.188801 -0.338541,0.188802 -0.585936,0.566405 -0.240885,0.377603 -0.345051,0.501301 -0.09766,0.117187 -0.429686,0.117187 -0.299479,0 -0.520832,-0.188801 -0.214844,-0.195312 -0.214844,-0.494791 0,-0.468749 0.332031,-0.911456 0.33203,-0.442707 1.035153,-0.729165 0.703124,-0.286457 1.751298,-0.286457 1.171872,0 1.842443,0.279947 0.670571,0.273437 0.944008,0.872394 0.279948,0.598956 0.279948,1.588537 0,0.624999 -0.0065,1.061196 0,0.436196 -0.0065,0.970049 0,0.501301 0.16276,1.048175 0.16927,0.540363 0.16927,0.696612 0,0.273437 -0.260416,0.501301 -0.253905,0.221354 -0.579426,0.221354 -0.273436,0 -0.540363,-0.253906 -0.266926,-0.260416 -0.566405,-0.748696 z m -0.117187,-2.571608 q -0.390624,0.143229 -1.13932,0.305989 -0.742185,0.15625 -1.028643,0.234374 -0.286458,0.07162 -0.546874,0.292968 -0.260416,0.214844 -0.260416,0.605468 0,0.403644 0.305989,0.690102 0.305989,0.279947 0.800779,0.279947 0.527343,0 0.97005,-0.227864 0.449218,-0.234374 0.65755,-0.598957 0.240885,-0.403644 0.240885,-1.328121 z"
			style="font-family:'Arial Rounded MT Bold';-inkscape-font-specification:'Arial Rounded MT Bold, '"
			id="path18932" />
			<path
			d="m 47.495366,29.708 v -0.17578 q -0.358072,0.410155 -0.709633,0.670571 -0.345051,0.253905 -0.755207,0.384113 -0.403644,0.136719 -0.885414,0.136719 -0.638019,0 -1.184893,-0.266927 -0.540363,-0.273436 -0.937498,-0.774737 -0.397134,-0.501301 -0.605467,-1.178383 -0.201822,-0.677081 -0.201822,-1.46484 0,-1.666662 0.8138,-2.597649 0.8138,-0.930988 2.141922,-0.930988 0.768227,0 1.295569,0.266927 0.527343,0.260416 1.028643,0.807289 v -2.623691 q 0,-0.546873 0.214844,-0.826821 0.221353,-0.279947 0.624998,-0.279947 0.403645,0 0.618488,0.260416 0.221354,0.253906 0.221354,0.755207 V 29.708 q 0,0.507812 -0.234375,0.761717 -0.234374,0.253906 -0.605467,0.253906 -0.364582,0 -0.605467,-0.260416 Q 47.495366,30.19628 47.495366,29.708 Z m -3.496085,-2.61067 q 0,0.722654 0.221354,1.230466 0.227864,0.507811 0.618488,0.768227 0.390624,0.253905 0.852863,0.253905 0.468748,0 0.852862,-0.240884 0.390624,-0.247396 0.618488,-0.748696 0.234374,-0.507812 0.234374,-1.263018 0,-0.709634 -0.234374,-1.217445 -0.227864,-0.514322 -0.624998,-0.781248 -0.390624,-0.273437 -0.859373,-0.273437 -0.48828,0 -0.872394,0.279947 -0.384113,0.273437 -0.598957,0.794269 -0.208333,0.514322 -0.208333,1.197914 z"
			style="font-family:'Arial Rounded MT Bold';-inkscape-font-specification:'Arial Rounded MT Bold, '"
			id="path18934" />
			<path
			d="m 52.736237,24.506191 v 5.136705 q 0,0.533853 -0.253905,0.80729 -0.253906,0.273437 -0.64453,0.273437 -0.390624,0 -0.638019,-0.279947 -0.240885,-0.279948 -0.240885,-0.80078 v -5.084622 q 0,-0.527343 0.240885,-0.794269 0.247395,-0.266926 0.638019,-0.266926 0.390624,0 0.64453,0.266926 0.253905,0.266926 0.253905,0.742186 z m -0.878904,-1.835933 q -0.371092,0 -0.638019,-0.227864 -0.260416,-0.227864 -0.260416,-0.64453 0,-0.377603 0.266927,-0.618488 0.273436,-0.247395 0.631508,-0.247395 0.345052,0 0.611978,0.221354 0.266926,0.221353 0.266926,0.644529 0,0.410155 -0.260416,0.64453 -0.260416,0.227864 -0.618488,0.227864 z"
			style="font-family:'Arial Rounded MT Bold';-inkscape-font-specification:'Arial Rounded MT Bold, '"
			id="path18936" />
			<path
			d="m 56.186751,24.480149 v 0.214843 q 0.468749,-0.618488 1.022133,-0.904945 0.559894,-0.292968 1.282549,-0.292968 0.703123,0 1.256507,0.305988 0.553384,0.305989 0.826821,0.865884 0.175781,0.32552 0.227864,0.703123 0.05208,0.377603 0.05208,0.963539 v 3.307283 q 0,0.533853 -0.247395,0.80729 -0.240885,0.273437 -0.631509,0.273437 -0.397134,0 -0.64453,-0.279947 -0.247395,-0.279948 -0.247395,-0.80078 v -2.962232 q 0,-0.878904 -0.247395,-1.341142 -0.240885,-0.468749 -0.97005,-0.468749 -0.475259,0 -0.865883,0.286458 -0.390624,0.279947 -0.572915,0.774737 -0.130208,0.397135 -0.130208,1.484372 v 2.226556 q 0,0.540364 -0.253906,0.8138 -0.247395,0.266927 -0.644529,0.266927 -0.384114,0 -0.631509,-0.279947 -0.247395,-0.279948 -0.247395,-0.80078 v -5.136705 q 0,-0.507812 0.221353,-0.755207 0.221354,-0.253905 0.605467,-0.253905 0.234375,0 0.423176,0.110676 0.188802,0.110677 0.299479,0.332031 0.117187,0.221353 0.117187,0.540363 z"
			style="font-family:'Arial Rounded MT Bold';-inkscape-font-specification:'Arial Rounded MT Bold, '"
			id="path18938" />
			<path
			d="m 69.161977,24.799159 v 5.162747 q 0,0.885414 -0.188801,1.523434 -0.188802,0.638019 -0.605467,1.054684 -0.416666,0.416666 -1.093748,0.618489 -0.670571,0.201822 -1.673173,0.201822 -0.917966,0 -1.64062,-0.260416 -0.722655,-0.253906 -1.113279,-0.664061 -0.390624,-0.403645 -0.390624,-0.833331 0,-0.32552 0.221354,-0.533853 0.221353,-0.201822 0.533853,-0.201822 0.390624,0 0.683592,0.345051 0.143228,0.175781 0.292968,0.351561 0.156249,0.182292 0.33854,0.305989 0.188802,0.130208 0.449218,0.188802 0.260416,0.0651 0.598957,0.0651 0.690102,0 1.067705,-0.195312 0.384114,-0.188802 0.533853,-0.533853 0.15625,-0.345051 0.182292,-0.742186 0.02604,-0.390624 0.03906,-1.263017 -0.410155,0.572915 -0.950519,0.872393 -0.533852,0.299479 -1.276038,0.299479 -0.891925,0 -1.562496,-0.455728 -0.664061,-0.455728 -1.022133,-1.276039 -0.358072,-0.82031 -0.358072,-1.894526 0,-0.800779 0.214843,-1.445309 0.221354,-0.64453 0.624999,-1.087237 0.403645,-0.442707 0.930987,-0.664061 0.527342,-0.227864 1.158851,-0.227864 0.755207,0 1.308591,0.292968 0.553384,0.286458 1.028643,0.904946 v -0.240885 q 0,-0.462238 0.227864,-0.716144 0.227864,-0.253905 0.585936,-0.253905 0.514322,0 0.683592,0.33854 0.16927,0.332031 0.16927,0.96354 z m -5.149726,2.252598 q 0,1.080727 0.468749,1.634111 0.475259,0.553384 1.223955,0.553384 0.442707,0 0.833331,-0.234375 0.397134,-0.240885 0.64453,-0.716144 0.247395,-0.481769 0.247395,-1.165361 0,-1.087237 -0.48177,-1.692705 -0.475259,-0.605467 -1.256507,-0.605467 -0.761717,0 -1.223955,0.579426 -0.455728,0.579425 -0.455728,1.647131 z"
			style="font-family:'Arial Rounded MT Bold';-inkscape-font-specification:'Arial Rounded MT Bold, '"
			id="path18940" />
			
			<!-- dot points -->
				<path
					d="m 71.629418,30.723623 q -0.403644,0 -0.696612,-0.260416 -0.292968,-0.260416 -0.292968,-0.729165 0,-0.397134 0.279947,-0.683592 0.279947,-0.286458 0.690102,-0.286458 0.410155,0 0.696613,0.286458 0.292968,0.279947 0.292968,0.683592 0,0.462238 -0.292968,0.729165 -0.286458,0.260416 -0.677082,0.260416 z"
					style="font-family:'Arial Rounded MT Bold';-inkscape-font-specification:'Arial Rounded MT Bold, '"
					id="path18942" 
				/>
				<path
					d="m 75.802587,30.723623 q -0.403645,0 -0.696613,-0.260416 -0.292968,-0.260416 -0.292968,-0.729165 0,-0.397134 0.279947,-0.683592 0.279947,-0.286458 0.690102,-0.286458 0.410156,0 0.696613,0.286458 0.292968,0.279947 0.292968,0.683592 0,0.462238 -0.292968,0.729165 -0.286457,0.260416 -0.677081,0.260416 z"
					style="font-family:'Arial Rounded MT Bold';-inkscape-font-specification:'Arial Rounded MT Bold, '"
					id="path18944" 
				/>
				<path
					d="m 79.975755,30.723623 q -0.403645,0 -0.696613,-0.260416 -0.292968,-0.260416 -0.292968,-0.729165 0,-0.397134 0.279947,-0.683592 0.279947,-0.286458 0.690103,-0.286458 0.410155,0 0.696612,0.286458 0.292968,0.279947 0.292968,0.683592 0,0.462238 -0.292968,0.729165 -0.286457,0.260416 -0.677081,0.260416 z"
					style="font-family:'Arial Rounded MT Bold';-inkscape-font-specification:'Arial Rounded MT Bold, '"
					id="path18946" 
				/>
			<!-- dot points -->
		</g>
	</g>
</svg>
