<?xml version="1.0" encoding="UTF-8" standalone="no"?>
<!-- Created with Inkscape (http://www.inkscape.org/) -->

<svg
   width="200"
   height="220"
   viewBox="0 0 52.916665 58.208335"
   version="1.1"
   id="svg5"
   xmlns="http://www.w3.org/2000/svg"
   xmlns:svg="http://www.w3.org/2000/svg">
  <defs
     id="defs2" />
  <g
     id="layer1">
    <ellipse
       style="fill:#1ca8af;fill-opacity:1;stroke:#ffffff;stroke-width:0.887688;stroke-linecap:round;stroke-miterlimit:4;stroke-dasharray:none;stroke-opacity:1;paint-order:fill markers stroke"
       id="path4563"
       cx="26.45833"
       cy="26.599411"
       rx="26.014488"
       ry="26.155567" />
    <path
       style="fill:#333333;fill-opacity:1;stroke:none;stroke-width:0.234866px;stroke-linecap:butt;stroke-linejoin:miter;stroke-opacity:1"
       d="m 15.380276,31.028754 c 0.169035,-0.759785 0.507142,-2.279523 0.805476,-3.239423 0.298334,-0.9599 0.556884,-1.359825 0.671254,-1.37474 0.11437,-0.01492 0.08454,0.355014 0.07461,0.689973 -0.0099,0.33496 1.1e-5,0.634901 0.124392,0.749739 0.124381,0.114837 0.363036,0.04485 0.765701,-0.360051 0.402664,-0.404899 0.96948,-1.144753 1.541323,-1.724692 0.571842,-0.579938 1.148607,-0.999862 1.988959,-1.419803 0.840352,-0.419941 1.944153,-0.839861 3.107713,-1.039802 1.16356,-0.19994 2.386697,-0.179944 3.291646,-0.144941 0.904949,0.035 1.491659,0.08499 2.00373,0.01997 0.512071,-0.06503 0.949616,-0.244993 1.402026,-0.594909 0.45241,-0.349915 0.919787,-0.869816 1.23302,-1.414658 0.313233,-0.544842 0.472339,-1.11473 0.606732,-1.349657 0.134393,-0.234926 0.24378,-0.134944 0.353073,0.205026 0.109294,0.33997 0.21868,0.919862 0.293246,1.524757 0.07456,0.604895 0.114342,1.234776 0.159143,1.60973 0.0448,0.374954 0.09452,0.494929 0.253585,0.439785 0.159064,-0.05514 0.427557,-0.2851 0.626413,-0.530005 0.198855,-0.244906 0.32813,-0.504856 0.46254,-0.5898 0.13441,-0.08495 0.273629,0.005 0.363,0.36502 0.08937,0.359981 0.129148,0.989861 0.129136,1.964699 -1.1e-5,0.974838 -0.03979,2.294591 -0.104435,3.364406 -0.06465,1.069815 -0.154145,1.889659 -0.149025,2.324552 0.0051,0.434892 0.104573,0.484887 0.233799,0.494798 0.129227,0.0099 0.288335,-0.02008 0.601496,-0.275026 0.31316,-0.254943 0.780537,-0.734855 1.073875,-1.144723 0.293339,-0.409868 0.412669,-0.749802 0.631531,-0.984855 0.218863,-0.235053 0.537078,-0.365031 0.880084,-0.709926 0.343006,-0.344894 0.71094,-0.904788 1.014242,-1.444678 0.303301,-0.53989 0.541961,-1.05979 0.661318,-1.499652 0.119356,-0.439863 0.119356,-0.799797 0.06467,-1.509677 -0.05468,-0.709881 -0.164068,-1.769675 -0.51704,-2.87449 -0.352972,-1.104816 -0.949623,-2.254598 -1.297613,-2.849583 -0.347991,-0.594984 -0.447423,-0.634971 -0.472444,-0.769919 -0.02502,-0.134949 0.0247,-0.364903 -0.124401,-0.974757 -0.1491,-0.609853 -0.497146,-1.599668 -1.078821,-2.424571 -0.581674,-0.824904 -1.397097,-1.484779 -2.078292,-1.844808 -0.681195,-0.36003 -1.228125,-0.420018 -1.625955,-0.415053 -0.39783,0.005 -0.646431,0.07495 -0.954679,-0.09488 C 32.087055,11.012293 31.719121,10.602371 31.19209,10.207388 30.66506,9.8124057 29.978912,9.432479 29.252944,9.2374367 28.526977,9.0423944 27.761277,9.0323953 27.070116,9.0723733 c -0.691162,0.039978 -1.3077,0.1299608 -1.725428,0.2399361 -0.417729,0.1099753 -0.636504,0.2399515 -0.840376,0.3699335 -0.203872,0.129982 -0.39281,0.2599552 -0.546987,0.3999671 -0.154177,0.140012 -0.273506,0.289984 -0.676163,0.449923 -0.402658,0.159938 -1.088809,0.329904 -1.894337,0.604857 -0.805528,0.274954 -1.730335,0.654883 -2.769573,1.264798 -1.039238,0.609914 -2.192761,1.449753 -3.013217,2.244669 -0.820455,0.794916 -1.307722,1.544779 -1.790034,2.46466 -0.482312,0.919881 -0.95963,2.009671 -1.208218,3.289529 -0.248588,1.279858 -0.268478,2.749582 -0.188895,3.949406 0.07958,1.199825 0.258579,2.129648 0.552025,2.829524 0.293446,0.699876 0.701159,1.169789 1.004392,1.789706 0.303232,0.619917 0.502115,1.389773 0.651294,1.919686 0.149178,0.529914 0.248621,0.819859 0.338086,0.929687 0.08947,0.109827 0.169005,0.03985 0.208776,0.0049 0.03977,-0.03499 0.03978,-0.03498 0.208815,-0.794766 z"
       id="path39654" />
    <path
       style="fill:#180099;fill-opacity:1;stroke:#000000;stroke-width:0.234866px;stroke-linecap:butt;stroke-linejoin:miter;stroke-opacity:1"
       d="m 21.918768,42.754158 c -1.436918,0.737352 -4.310845,2.212104 -5.916921,3.166984 -1.606076,0.95488 -1.944182,1.389802 -2.232578,2.09726 -0.288396,0.707458 -0.527055,1.687268 -0.65134,3.277055 -0.124285,1.589786 -0.134228,3.789373 -0.114289,4.9642 0.01994,1.174827 0.06966,1.324793 0.149216,1.374621 0.07956,0.04983 0.188949,-1.64e-4 4.634239,0.02986 4.445291,0.03002 13.226,0.140002 17.651206,0.184971 4.425206,0.04497 4.494825,0.02497 4.55936,-0.04495 0.06453,-0.06992 0.124202,-0.1899 0.104339,-1.744589 -0.01986,-1.55469 -0.119305,-4.544128 -0.268407,-6.238826 -0.149101,-1.694698 -0.347985,-2.094624 -0.820293,-2.609576 -0.472309,-0.514952 -1.218123,-1.144832 -2.640175,-1.979737 -1.422052,-0.834906 -3.520276,-1.874709 -4.733502,-2.419666 -1.213226,-0.544957 -1.541384,-0.594947 -1.710617,-0.57279 -0.169233,0.02216 -0.179249,0.116289 -0.205355,0.333036 -0.02611,0.216747 -0.0683,0.556095 -0.103448,0.990904 -0.03515,0.43481 -0.06328,0.965045 -0.09142,1.279624 -0.02814,0.314579 -0.05627,0.413555 -0.182812,0.5584 -0.126541,0.144845 -0.351554,0.335727 -0.641585,0.528368 -0.290031,0.192642 -0.645124,0.387059 -1.038847,0.51256 -0.393723,0.125501 -0.826166,0.18206 -1.3166,0.15382 -0.490433,-0.02824 -1.038898,-0.141356 -1.467847,-0.328633 -0.428949,-0.187276 -0.738338,-0.448854 -0.977439,-0.682141 -0.239101,-0.233286 -0.40786,-0.438309 -0.499353,-0.579697 -0.09149,-0.141389 -0.105558,-0.219165 -0.08977,-0.493154 0.01579,-0.27399 0.06149,-0.744126 0.121257,-1.212518 0.05977,-0.468391 0.133597,-0.934994 0.122668,-1.148579 -0.01093,-0.213584 -0.106786,-0.173897 -0.154778,-0.154027 -0.04799,0.01987 -0.04799,0.01987 -1.484907,0.75722 z"
       id="path17295" />
    <ellipse
       style="fill:#180099;fill-opacity:1;stroke:#2cf1f8;stroke-width:0.5;stroke-linecap:round;stroke-miterlimit:4;stroke-dasharray:none;stroke-opacity:1;paint-order:fill markers stroke"
       id="ellipse31269"
       cx="26.519402"
       cy="45.52837"
       rx="6.5764055"
       ry="2.4410579" />
    <ellipse
       style="fill:#180099;fill-opacity:1;stroke:#2cf1f8;stroke-width:0.5;stroke-linecap:round;stroke-miterlimit:4;stroke-dasharray:none;stroke-opacity:1;paint-order:fill markers stroke"
       id="path28911"
       cx="26.519402"
       cy="45.422169"
       rx="5.0416536"
       ry="1.8029099" />
    <path
       id="path29026"
       style="fill:#ffffff;fill-opacity:1;stroke:none;stroke-width:0.234866px;stroke-linecap:butt;stroke-linejoin:miter;stroke-opacity:1"
       d="m 32.99799,19.928104 c -0.102222,0.0048 -0.16044,0.24693 -0.225082,0.482506 -0.07956,0.289936 -0.169153,0.569796 -0.348146,0.899694 -0.178994,0.329897 -0.447349,0.710022 -0.88981,1.034924 -0.442461,0.324902 -1.058893,0.594753 -1.720146,0.749744 -0.661252,0.154992 -1.367417,0.195206 -1.894447,0.175248 -0.52703,-0.01997 -0.875245,-0.100204 -1.56643,-0.06026 -0.691183,0.03995 -1.725149,0.200152 -2.595316,0.395113 -0.870165,0.194961 -1.576137,0.424694 -2.307099,0.779644 -0.730961,0.354948 -1.486979,0.83479 -2.10855,1.404737 -0.621572,0.569947 -1.108675,1.229744 -1.426899,1.669677 -0.318223,0.439934 -0.467434,0.659884 -0.596559,0.759865 -0.129128,0.09998 -0.238236,0.08011 -0.278151,-0.134769 -0.03992,-0.214887 -0.01017,-0.624591 0.01967,-1.039524 0.02983,-0.414932 0.05938,-0.835081 -0.02516,-0.860139 -0.08454,-0.02506 -0.283494,0.344958 -0.382914,0.529882 -0.09942,0.184926 -0.09901,0.184945 -0.268088,0.649933 -0.169079,0.464989 -0.50759,1.394931 -0.676621,2.109866 -0.169029,0.714937 -0.168973,1.214509 -0.09928,1.574466 0.03129,0.161597 0.07883,0.297199 0.137247,0.450766 -0.09112,-0.0099 -0.189036,0.09471 -0.276322,0.16421 -0.119255,0.09495 -0.218694,0.124738 -0.44742,-0.235044 -0.228728,-0.359783 -0.586931,-1.109647 -0.815696,-1.77455 -0.228768,-0.664904 -0.328101,-1.244898 -0.482191,-1.505011 -0.15409,-0.260113 -0.362803,-0.199827 -0.561793,0.09521 -0.19899,0.29504 -0.387966,0.824808 -0.462515,1.369778 -0.07455,0.544973 -0.0347,1.104834 0.129467,1.599764 0.164166,0.494931 0.45264,0.924978 0.850466,1.299865 0.397822,0.37489 0.904798,0.694884 1.312524,0.909814 0.407728,0.214929 0.715934,0.324772 0.88981,0.179849 0.173875,-0.144924 0.213767,-0.544827 0.188941,-0.97973 -0.0053,-0.09352 -0.01377,-0.188682 -0.02471,-0.281961 0.194834,0.6204 0.440943,1.570976 0.715965,2.48152 0.288405,0.954851 0.606435,1.854964 1.163386,2.759799 0.556951,0.904837 1.352485,1.814714 2.162992,2.429544 0.810506,0.614829 1.636026,0.934657 2.207825,1.204651 0.5718,0.269997 0.890145,0.490068 1.059078,0.70007 0.168933,0.210002 0.188666,0.409751 0.16378,0.819661 -0.02489,0.409909 -0.09446,1.029976 -0.109339,1.459934 -0.01487,0.429957 0.02491,0.669703 0.08463,0.859677 0.05973,0.189973 0.139075,0.330116 0.33305,0.505043 0.193973,0.174927 0.502181,0.384805 0.755766,0.559778 0.253585,0.174974 0.45264,0.315098 0.770864,0.42501 0.318221,0.109912 0.755965,0.189547 1.223315,0.189507 0.467352,-4.1e-5 0.96426,-0.08003 1.401737,-0.270002 0.437476,-0.189966 0.815644,-0.489907 1.074174,-0.719847 0.258532,-0.229941 0.397539,-0.389981 0.472126,-0.679831 0.07459,-0.289848 0.08473,-0.709549 0.129467,-1.304465 0.04474,-0.594915 0.12405,-1.364755 0.362787,-1.834805 0.238737,-0.470051 0.636625,-0.640186 1.412258,-1.165096 0.775634,-0.524908 1.929018,-1.40452 2.779224,-2.484279 0.850208,-1.07976 1.397354,-2.359708 1.795175,-3.094654 0.397818,-0.734948 0.646137,-0.924579 1.004178,-1.119559 0.358043,-0.19498 0.825394,-0.395244 1.24299,-0.745145 0.417595,-0.349901 0.785731,-0.84977 1.069143,-1.584586 0.283412,-0.734816 0.482358,-1.70469 0.537089,-2.504516 0.05473,-0.799829 -0.03472,-1.429519 -0.10934,-1.699577 -0.07462,-0.270058 -0.134487,-0.180035 -0.358212,0.0299 -0.223723,0.209931 -0.61152,0.539932 -0.939673,0.799883 -0.328156,0.25995 -0.596483,0.449707 -0.820273,0.669711 -0.223791,0.220004 -0.40295,0.4698 -0.621724,0.749744 -0.218771,0.279945 -0.477111,0.590274 -0.810206,0.865198 -0.333095,0.274923 -0.740891,0.514846 -0.914971,0.459965 -0.174079,-0.05488 -0.114401,-0.405169 0.03477,-1.390018 0.149169,-0.984849 0.387938,-2.604461 0.427749,-3.944213 0.03981,-1.33975 -0.119492,-2.399473 -0.273577,-3.069356 -0.154083,-0.669881 -0.303226,-0.949957 -0.377883,-0.999966 -0.07466,-0.05001 -0.07469,0.129955 -0.124436,0.374871 -0.04975,0.244918 -0.149354,0.554802 -0.318411,0.939713 -0.169055,0.384908 -0.407457,0.845024 -0.571399,1.074941 -0.163941,0.229916 -0.253683,0.22998 -0.283642,0.01013 -0.02996,-0.219861 -7.4e-5,-0.659731 -0.005,-1.164635 -0.005,-0.504906 -0.04474,-1.07507 -0.18391,-1.65496 -0.139174,-0.579889 -0.377838,-1.16956 -0.532055,-1.314585 -0.02891,-0.02719 -0.05464,-0.03881 -0.07823,-0.03771 z" />
    <path
       style="fill:none;stroke:#000000;stroke-width:0.887688;stroke-linecap:round;stroke-linejoin:miter;stroke-miterlimit:4;stroke-dasharray:none;stroke-opacity:1"
       d="m 16.269371,30.870411 c -0.355044,2.862916 0.570202,5.860676 2.477028,8.025476 1.906825,2.1648 4.763837,3.460999 7.64867,3.470127 2.867163,0.0091 5.715307,-1.252598 7.635085,-3.382188 1.919779,-2.12959 2.880339,-5.092875 2.574996,-7.943747"
       id="path881" />
    <path
       style="fill:none;stroke:#000000;stroke-width:0.887688;stroke-linecap:round;stroke-linejoin:miter;stroke-miterlimit:4;stroke-dasharray:none;stroke-opacity:1"
       d="m 19.922839,31.026577 c 0.431692,-0.514902 1.088557,-0.83392 1.760155,-0.854851 0.721304,-0.02248 1.445679,0.301841 1.909321,0.854851"
       id="path959" />
    <path
       style="fill:none;stroke:#000000;stroke-width:0.887688;stroke-linecap:round;stroke-linejoin:miter;stroke-miterlimit:4;stroke-dasharray:none;stroke-opacity:1"
       d="m 29.230776,31.071571 c 0.468767,-0.541791 1.177971,-0.867434 1.894402,-0.869849 0.728674,-0.0025 1.451803,0.33007 1.924237,0.884847"
       id="path996" />
    <path
       style="fill:none;stroke:#000000;stroke-width:0.887688;stroke-linecap:round;stroke-linejoin:miter;stroke-miterlimit:4;stroke-dasharray:none;stroke-opacity:1"
       d="m 26.366795,28.97193 c 0.08556,0.977698 0.07555,1.963734 -0.02983,2.939494 -0.06427,0.595116 -0.163949,1.186405 -0.29833,1.769702"
       id="path1226" />
    <path
       style="fill:none;stroke:#000000;stroke-width:0.887688;stroke-linecap:round;stroke-linejoin:miter;stroke-miterlimit:4;stroke-dasharray:none;stroke-opacity:1"
       d="m 23.830979,37.910414 c 0.695668,0.606775 1.612726,0.953892 2.535816,0.959836 1.08315,0.007 2.160914,-0.462218 2.893815,-1.259788"
       id="path1263" />
    <path
       style="fill:none;stroke:#000000;stroke-width:0.887688;stroke-linecap:round;stroke-linejoin:miter;stroke-miterlimit:4;stroke-dasharray:none;stroke-opacity:1"
       d="m 22.100659,20.393381 c -1.555709,0.608769 -2.911719,1.716502 -3.818643,3.11947 -1.017109,1.573419 -1.458375,3.510373 -1.223157,5.369091"
       id="path1783" />
    <path
       style="fill:none;stroke:#000000;stroke-width:0.887688;stroke-linecap:round;stroke-linejoin:miter;stroke-miterlimit:4;stroke-dasharray:none;stroke-opacity:1"
       d="m 32.721251,18.623678 c 0.22737,0.929039 0.108601,1.938622 -0.328165,2.789531 -0.443481,0.863991 -1.234608,1.568363 -2.177817,1.79969 -0.747487,0.183325 -1.530595,0.06882 -2.297151,0 -1.619616,-0.145406 -3.275601,-0.07794 -4.832968,0.389939 -2.637209,0.792293 -4.893813,2.769105 -6.026291,5.279104"
       id="path1820" />
    <path
       style="fill:none;stroke:#000000;stroke-width:0.887688;stroke-linecap:butt;stroke-linejoin:miter;stroke-miterlimit:4;stroke-dasharray:none;stroke-opacity:1"
       d="m 32.721249,18.623678 c 0.395153,0.670528 0.695203,1.397008 0.888384,2.150954 0.344027,1.342668 0.344027,2.771994 0,4.114662"
       id="path1857" />
    <path
       style="fill:none;stroke:#000000;stroke-width:0.887688;stroke-linecap:round;stroke-linejoin:miter;stroke-miterlimit:4;stroke-dasharray:none;stroke-opacity:1"
       d="m 34.959725,19.968666 c 0.158443,0.796656 0.14395,1.627249 -0.04219,2.417892 -0.21798,0.925884 -0.672238,1.79513 -1.307903,2.502736"
       id="path1861" />
    <path
       style="fill:none;stroke:#000000;stroke-width:0.887688;stroke-linecap:round;stroke-linejoin:miter;stroke-miterlimit:4;stroke-dasharray:none;stroke-opacity:1"
       d="m 34.959723,19.968666 c 0.549002,1.870962 0.833962,3.819195 0.843811,5.769017 0.0097,1.917605 -0.246669,3.83637 -0.759429,5.684174"
       id="path1996" />
    <path
       style="fill:none;stroke:#000000;stroke-width:0.887688;stroke-linecap:round;stroke-linejoin:miter;stroke-miterlimit:4;stroke-dasharray:none;stroke-opacity:1"
       d="m 37.533339,27.17993 c 0.172862,0.746039 0.09767,1.547364 -0.210952,2.248224 -0.419941,0.953648 -1.277358,1.703966 -2.278282,1.993703"
       id="path2000" />
    <path
       style="fill:none;stroke:#000000;stroke-width:0.887688;stroke-linecap:round;stroke-linejoin:miter;stroke-miterlimit:4;stroke-dasharray:none;stroke-opacity:1"
       d="m 32.900251,11.244934 c 1.34229,0.09042 2.648395,0.650143 3.639642,1.55973 1.077111,0.988378 1.771169,2.384022 1.90932,3.839348"
       id="path2581" />
    <path
       style="fill:none;stroke:#000000;stroke-width:0.887688;stroke-linecap:round;stroke-linejoin:miter;stroke-miterlimit:4;stroke-dasharray:none;stroke-opacity:1"
       d="m 35.585232,14.904305 c 1.314263,0.871839 2.440831,2.025113 3.281644,3.359438 1.466991,2.328036 2.031426,5.209169 1.551323,7.918655"
       id="path2618" />
    <path
       style="fill:none;stroke:#000000;stroke-width:0.887688;stroke-linecap:round;stroke-linejoin:miter;stroke-miterlimit:4;stroke-dasharray:none;stroke-opacity:1"
       d="m 37.971884,28.821949 c 0.537868,-0.41749 1.004107,-0.927019 1.372323,-1.499747 0.465225,-0.723615 0.772725,-1.548062 0.894994,-2.399592"
       id="path2786" />
    <path
       style="fill:none;stroke:#000000;stroke-width:0.887688;stroke-linecap:round;stroke-linejoin:miter;stroke-miterlimit:4;stroke-dasharray:none;stroke-opacity:1"
       d="m 26.873958,10.645031 c -2.276506,-0.382049 -4.658045,-0.116574 -6.79454,0.757401 -2.136495,0.873975 -4.021307,2.353735 -5.377377,4.22176 -1.319049,1.817028 -2.134638,3.995675 -2.333065,6.232214 -0.198427,2.236539 0.22086,4.524745 1.199408,6.545617"
       id="path2940" />
    <path
       style="fill:none;stroke:#000000;stroke-width:0.887688;stroke-linecap:round;stroke-linejoin:miter;stroke-miterlimit:4;stroke-dasharray:none;stroke-opacity:1"
       d="m 16.671028,18.983621 c -1.317553,1.590636 -2.246756,3.500641 -2.684982,5.519063 -0.281631,1.297164 -0.362439,2.637729 -0.238664,3.959331"
       id="path2977" />
    <path
       style="fill:none;stroke:#000000;stroke-width:0.887688;stroke-linecap:round;stroke-linejoin:miter;stroke-miterlimit:4;stroke-dasharray:none;stroke-opacity:1"
       d="m 17.506355,24.382699 c -0.99644,1.60019 -1.65163,3.411736 -1.909321,5.279112 -0.104142,0.754671 -0.14411,1.518188 -0.119331,2.279608"
       id="path3014" />
    <path
       style="fill:none;stroke:#000000;stroke-width:0.887688;stroke-linecap:round;stroke-linejoin:miter;stroke-miterlimit:4;stroke-dasharray:none;stroke-opacity:1"
       d="m 14.165045,25.522513 c -0.256235,1.367136 -0.215237,2.789195 0.119334,4.139298 0.218482,0.881648 0.561003,1.732462 1.014325,2.519568"
       id="path3051" />
    <path
       style="fill:none;stroke:#000000;stroke-width:0.887688;stroke-linecap:round;stroke-linejoin:miter;stroke-miterlimit:4;stroke-dasharray:none;stroke-opacity:1"
       d="m 16.671028,21.503188 c 0.300117,-1.295826 1.021559,-2.490525 2.028654,-3.359429 1.210364,-1.044281 2.779221,-1.594321 4.355637,-1.859682 1.457174,-0.245289 2.952001,-0.265599 4.415301,-0.05999"
       id="path3088" />
    <path
       style="fill:none;stroke:#000000;stroke-width:0.887688;stroke-linecap:round;stroke-linejoin:miter;stroke-miterlimit:4;stroke-dasharray:none;stroke-opacity:1"
       d="m 23.890646,9.6851941 c 1.751995,-0.9618496 3.945586,-1.0755352 5.787626,-0.2999512 1.206421,0.5079591 2.263421,1.3892771 2.923647,2.5195761 0.689913,1.181123 0.928228,2.618771 0.656329,3.959332"
       id="path3125" />
    <path
       style="fill:none;stroke:#000000;stroke-width:0.887688;stroke-linecap:round;stroke-linejoin:miter;stroke-miterlimit:4;stroke-dasharray:none;stroke-opacity:1"
       d="m 13.150719,27.622154 c -0.683105,1.121291 -0.775287,2.581048 -0.238664,3.779364 0.5373,1.199828 1.689992,2.103802 2.983313,2.3396"
       id="path3162" />
    <path
       style="fill:none;stroke:#000000;stroke-width:0.887688;stroke-linecap:round;stroke-linejoin:miter;stroke-miterlimit:4;stroke-dasharray:none;stroke-opacity:1"
       d="m 39.463538,27.427188 c 0.662498,1.265897 0.707802,2.837336 0.119335,4.139299 -0.585131,1.294581 -1.783989,2.295256 -3.162313,2.639552"
       id="path3199" />
    <path
       style="fill:none;stroke:#000000;stroke-width:0.443843;stroke-linecap:round;stroke-linejoin:miter;stroke-miterlimit:4;stroke-dasharray:none;stroke-opacity:1"
       d="M 23.526121,42.450858 23.315169,44.86875"
       id="path3236" />
    <path
       style="fill:none;stroke:#000000;stroke-width:0.443843;stroke-linecap:round;stroke-linejoin:miter;stroke-miterlimit:4;stroke-dasharray:none;stroke-opacity:1"
       d="M 29.728112,42.06908 29.55935,45.080841"
       id="path3273" />
    <path
       style="fill:none;stroke:#000000;stroke-width:0.443843;stroke-linecap:round;stroke-linejoin:miter;stroke-miterlimit:4;stroke-dasharray:none;stroke-opacity:1"
       d="m 23.315169,44.953585 c 0.609733,0.927068 1.640633,1.564908 2.742378,1.696769 0.658731,0.07884 1.337622,-0.01748 1.948425,-0.276447 0.610803,-0.258964 1.152048,-0.679946 1.553378,-1.208223"
       id="path3310" />
    <path
       style="fill:none;stroke:#000000;stroke-width:0.887688;stroke-linecap:round;stroke-linejoin:miter;stroke-miterlimit:4;stroke-dasharray:none;stroke-opacity:1"
       d="m 23.357359,42.111502 c -2.967286,1.343227 -5.934675,2.686501 -7.573152,3.761218 -1.638478,1.074717 -1.947865,1.880657 -2.165851,2.446251 -0.217986,0.565593 -0.344557,0.890804 -0.421882,2.396765 -0.07733,1.505962 -0.105452,4.192468 -0.133576,6.878774"
       id="path3388" />
    <path
       style="fill:none;stroke:#000000;stroke-width:0.887688;stroke-linecap:round;stroke-linejoin:miter;stroke-miterlimit:4;stroke-dasharray:none;stroke-opacity:1"
       d="m 30.192207,42.238758 c 2.208248,1.018191 4.416213,2.036252 5.913971,2.835184 1.497757,0.798933 2.285299,1.378654 2.819649,1.965503 0.534349,0.586849 0.815614,1.180707 0.963213,2.955252 0.1476,1.774544 0.161663,4.729688 0.175725,7.684659"
       id="path3425" />
    <path
       style="fill:none;stroke:#000000;stroke-width:0.887688;stroke-linecap:round;stroke-linejoin:miter;stroke-miterlimit:4;stroke-dasharray:none;stroke-opacity:1"
       d="m 23.737074,27.095096 c -0.801336,-0.409908 -1.602954,-0.819961 -2.313215,-0.968515 -0.71026,-0.148555 -1.329041,-0.03544 -1.948017,0.07771"
       id="path3575" />
    <path
       style="fill:none;stroke:#000000;stroke-width:0.887688;stroke-linecap:round;stroke-linejoin:miter;stroke-miterlimit:4;stroke-dasharray:none;stroke-opacity:1"
       d="m 29.91797,27.105857 c 0.801337,-0.409909 1.602955,-0.819961 2.313215,-0.968515 0.71026,-0.148555 1.329041,-0.03544 1.948017,0.07771"
       id="path3575-9" />
    <path
       style="fill:none;stroke:#000000;stroke-width:0.887688;stroke-linecap:round;stroke-linejoin:miter;stroke-miterlimit:4;stroke-dasharray:none;stroke-opacity:1"
       d="m 13.062897,57.636933 c 8.972731,0.04242 17.945226,0.08484 26.917487,0.127254"
       id="path3994" />
  </g>
</svg>
