<?xml version="1.0" encoding="UTF-8" standalone="no"?>
<svg
	fill="#000000"
	viewBox="0 0 50 50"
	width="100px"
	height="100px"
	version="1.1"
	id="svg4"
	xmlns:xlink="http://www.w3.org/1999/xlink"
	xmlns="http://www.w3.org/2000/svg"
	xmlns:svg="http://www.w3.org/2000/svg">
	<defs id="defs8">
		<rect
			x="0.57692308"
			y="100.19231"
			width="266.9362"
			height="55.920969"
			id="rect18153" />
		<rect
			x="17.677669"
			y="20.397311"
			width="185.0135"
			height="85.408062"
			id="rect6297" />
		<rect
			x="0.57692308"
			y="100.19231"
			width="212.5"
			height="59.038461"
			id="rect34744" />
		<rect
			x="0.57692307"
			y="100.19231"
			width="266.93619"
			height="55.920967"
			id="rect18153-7" />
		<rect
			x="0.57692308"
			y="100.19231"
			width="266.9362"
			height="55.920969"
			id="rect2616" />
		<rect
			x="0.57692307"
			y="100.19231"
			width="266.93619"
			height="55.920967"
			id="rect2618" />
		<filter
			style="color-interpolation-filters:sRGB"
			id="filter3339"
			x="-0.069918521"
			y="-0.080877974"
			width="1.139837"
			height="1.1617559">
			<feGaussianBlur
				stdDeviation="1.2360087"
				id="feGaussianBlur3341" />
		</filter>
		<linearGradient
			xlink:href="#linearGradient9725"
			id="linearGradient9727"
			x1="-9.6648893"
			y1="-3.3393173"
			x2="-0.16029857"
			y2="-34.67968"
			gradientUnits="userSpaceOnUse"
			gradientTransform="matrix(1.0560759,0,0,1.0560759,40.580209,12.413044)" />
		<linearGradient
			id="linearGradient9725">
			<stop
				style="stop-color:#ff18bd;stop-opacity:1;"
				offset="0"
				id="stop9721" />
			<stop
				style="stop-color:#ff18bd;stop-opacity:0;"
				offset="1"
				id="stop9723" />
		</linearGradient>
		<filter
			style="color-interpolation-filters:sRGB"
			id="filter1164"
			x="-0.025561607"
			y="-0.39285076"
			width="1.0511232"
			height="1.7857015">
			<feGaussianBlur
				stdDeviation="0.86824368"
				id="feGaussianBlur1166" />
		</filter>
	</defs>
	
	<g
		id="layer1"
		style="display:inline">
		<g
			id="g2810"
			transform="translate(-14.067649,34.899495)">
			<path
				id="path34235"
				style="display:inline;fill:#000000;fill-opacity:1;stroke-width:0.0671715;stroke-linecap:round;paint-order:fill markers stroke"
				d="m 16.769309,-8.913167 a 22.403,22.403 0 0 0 -0.10449,1.985351 22.403,22.403 0 0 0 0.0166,0.3125 h 44.77246 a 22.403,22.403 0 0 0 0.0166,-0.3125 22.403,22.403 0 0 0 -0.0908,-1.985351 z m -0.03711,3.270508 a 22.403,22.403 0 0 0 0.238285,2.208984 h 44.195305 a 22.403,22.403 0 0 0 0.23731,-2.208984 z" />
			<path
				id="path3337"
				style="display:inline;fill:#f91eb2;fill-opacity:1;stroke-width:0.098113;stroke-linecap:round;paint-order:fill markers stroke;filter:url(#filter3339)"
				d="M 24.180288,2.9664208 A 21.213203,21.213203 0 0 0 3.6695457,18.923452 H 44.727164 A 21.213203,21.213203 0 0 0 24.180288,2.9664208 Z M 3.5230617,19.596303 a 21.213203,21.213203 0 0 0 -0.341797,1.931641 H 45.206656 a 21.213203,21.213203 0 0 0 -0.320312,-1.931641 z m -0.437501,2.796875 a 21.213203,21.213203 0 0 0 -0.11914,1.78711 21.213203,21.213203 0 0 0 0.0098,0.143554 H 45.383444 a 21.213203,21.213203 0 0 0 0.0098,-0.143554 21.213203,21.213203 0 0 0 -0.09961,-1.78711 z m -0.03613,2.988282 a 21.213203,21.213203 0 0 0 0.230469,1.93164 H 45.079705 a 21.213203,21.213203 0 0 0 0.230469,-1.93164 z m 0.421875,3.084961 a 21.213203,21.213203 0 0 0 0.517578,1.93164 H 44.370719 a 21.213203,21.213203 0 0 0 0.517578,-1.93164 z m 0.905274,3.08496 a 21.213203,21.213203 0 0 0 0.833007,1.931641 H 43.150018 a 21.213203,21.213203 0 0 0 0.833007,-1.931641 z m 1.452148,3.084961 a 21.213203,21.213203 0 0 0 1.21875,1.93164 H 41.312127 a 21.213203,21.213203 0 0 0 1.21875,-1.93164 z m 2.401367,3.469726 a 21.213203,21.213203 0 0 0 1.445312,1.538086 H 38.684197 a 21.213203,21.213203 0 0 0 1.445313,-1.538086 z"
				transform="matrix(1.0560759,0,0,1.0560759,13.531911,-32.399495)" />
			<path
				id="path877"
				style="display:inline;fill:#ffe550;fill-opacity:1;stroke-width:0.103615;stroke-linecap:round;paint-order:fill markers stroke"
				d="m 39.06813,-29.26673 c -10.218636,0.01974 -19.128959,6.951828 -21.6609,16.851837 H 60.767189 C 58.23171,-22.328653 49.300983,-29.264399 39.06813,-29.26673 Z m -21.815598,17.562419 c -0.151714,0.674056 -0.272164,1.35477 -0.360964,2.039959 H 61.27357 c -0.0813,-0.684831 -0.194177,-1.365542 -0.338273,-2.039959 z m -0.05466,9.367518 c 0.15003,0.688201 0.332433,1.368943 0.546601,2.039958 h 42.646282 c 0.214168,-0.671015 0.396572,-1.351757 0.546602,-2.039958 z m 0.956037,3.257951 c 0.259323,0.694117 0.552924,1.37494 0.879719,2.03996 h 40.067973 c 0.326795,-0.66502 0.620396,-1.345843 0.879719,-2.03996 z m 1.533579,3.257953 c 0.392087,0.702606 0.82174,1.383579 1.287092,2.039959 h 36.18607 c 0.465352,-0.65638 0.895006,-1.337353 1.287092,-2.039959 z m 2.536026,3.664294 c 0.481519,0.566436 0.990936,1.108553 1.52636,1.624336 H 54.38536 c 0.535423,-0.515783 1.04484,-1.0579 1.526359,-1.624336 z" />
			<path
				id="path7144"
				style="display:inline;fill:url(#linearGradient9727);fill-opacity:1;stroke-width:0.103615;stroke-linecap:round;paint-order:fill markers stroke"
				d="m 39.068129,-29.26673 c -10.218636,0.01974 -19.128958,6.951827 -21.6609,16.851836 h 43.35996 C 58.23171,-22.328654 49.300982,-29.2644 39.068129,-29.26673 Z m -21.815598,17.562418 c -0.151714,0.674056 -0.272164,1.35477 -0.360964,2.039959 H 61.27357 c -0.0813,-0.684831 -0.194177,-1.365542 -0.338273,-2.039959 z m -0.05466,9.367518 c 0.15003,0.688201 0.332434,1.368943 0.546602,2.039958 h 42.646282 c 0.214168,-0.671015 0.396572,-1.351757 0.546602,-2.039958 z m 0.956038,3.257951 c 0.259323,0.694117 0.552923,1.37494 0.879718,2.03996 h 40.067974 c 0.326795,-0.66502 0.620396,-1.345843 0.879719,-2.03996 z m 1.533578,3.257953 c 0.392087,0.702606 0.821741,1.383579 1.287093,2.039959 H 57.16065 C 57.626,5.562689 58.055654,4.881716 58.44774,4.17911 Z m 2.536026,3.664294 c 0.48152,0.566436 0.990937,1.108553 1.52636,1.624336 H 54.385357 C 54.920782,8.951957 55.4302,8.40984 55.911721,7.843404 Z" />
		</g>
	</g>
	
	<g
		id="layer2"
		style="display:inline">
		
		<g id="g1116">
			<g
				aria-label="LOADING..."
				transform="matrix(0.19398458,0,0,0.19398458,5.9387418,4.3145413)"
				id="text18151"
				style="font-size:40px;line-height:0.95;font-family:Retronoid;-inkscape-font-specification:Retronoid;letter-spacing:0px;word-spacing:0px;white-space:pre;shape-inside:url(#rect18153);fill:#ffffff">
				<path
					d="m 1.5527344,119.66016 v -7.8125 h 9.7656246 v 7.8125 z m 9.7656246,1.95312 v 9.76563 h 7.8125 v 7.8125 H 1.5527344 v -17.57813 z"
					id="path935" />
				<path
					d="m 34.755859,121.61328 h 9.765625 v 9.76563 q 0,7.8125 -7.8125,7.8125 h -7.8125 q -7.8125,0 -7.8125,-7.8125 v -9.76563 h 9.765625 v 9.76563 h 3.90625 z m -13.671875,-1.95312 q 0,-7.8125 7.8125,-7.8125 h 7.8125 q 7.8125,0 7.8125,7.8125 z"
					id="path937" />
				<path
					d="m 59.716797,129.42578 -1.464844,-5.85937 -1.464844,5.85937 z m 7.1875,-7.8125 5.019531,17.57813 h -9.765625 l -0.488281,-1.95313 h -6.835938 l -0.488281,1.95313 h -9.765625 l 5.019531,-17.57813 z m -16.738281,-1.95312 2.226562,-7.8125 h 11.71875 l 2.226563,7.8125 z"
					id="path939" />
				<path
					d="m 83.642578,121.61328 v 9.76563 h 3.90625 v -9.76563 h 9.765625 v 9.76563 q 0,7.8125 -7.8125,7.8125 h -15.625 v -17.57813 z m -9.765625,-1.95312 v -7.8125 h 15.625 q 7.8125,0 7.8125,7.8125 z"
					id="path941" />
				<path
					d="m 99.267578,119.66016 v -7.8125 h 9.765622 v 7.8125 z m 9.765622,1.95312 v 17.57813 h -9.765622 v -17.57813 z"
					id="path943" />
				<path
					d="m 134.42383,121.61328 v 17.57813 h -9.76563 v -9.76563 l -3.90625,-3.90625 v 13.67188 h -9.76562 v -17.57813 z m -23.4375,-1.95312 v -7.8125 h 9.76562 l 3.90625,3.90625 v -3.90625 h 9.76563 v 7.8125 z"
					id="path945" />
				<path
					d="m 146.14258,121.61328 v 9.76563 h 3.90625 v -1.95313 h -1.95313 v -7.8125 h 11.71875 v 17.57813 h -15.625 q -7.8125,0 -7.8125,-7.8125 v -9.76563 z m -9.76563,-1.95312 q 0,-7.8125 7.8125,-7.8125 h 15.625 v 7.8125 z"
					id="path947" />
				<path
					d="m 166.65039,129.42578 q 2.03125,0 3.45703,1.42578 1.42578,1.42578 1.42578,3.45703 0,2.03125 -1.42578,3.45703 -1.42578,1.42579 -3.45703,1.42579 -2.03125,0 -3.45703,-1.42579 -1.42578,-1.42578 -1.42578,-3.45703 0,-2.03125 1.42578,-3.45703 1.42578,-1.42578 3.45703,-1.42578 z"
					id="path949" />
				<path
					d="m 178.36914,129.42578 q 2.03125,0 3.45703,1.42578 1.42578,1.42578 1.42578,3.45703 0,2.03125 -1.42578,3.45703 -1.42578,1.42579 -3.45703,1.42579 -2.03125,0 -3.45703,-1.42579 -1.42578,-1.42578 -1.42578,-3.45703 0,-2.03125 1.42578,-3.45703 1.42578,-1.42578 3.45703,-1.42578 z"
					id="path951" />
				<path
					d="m 190.08789,129.42578 q 2.03125,0 3.45703,1.42578 1.42578,1.42578 1.42578,3.45703 0,2.03125 -1.42578,3.45703 -1.42578,1.42579 -3.45703,1.42579 -2.03125,0 -3.45703,-1.42579 -1.42578,-1.42578 -1.42578,-3.45703 0,-2.03125 1.42578,-3.45703 1.42578,-1.42578 3.45703,-1.42578 z"
					id="path953" />
			</g>
			<g
				aria-label="LOADING..."
				transform="matrix(0.19398458,0,0,0.19398458,-38.061258,4.3145413)"
				id="text18151-4"
				style="font-size:40px;line-height:0.95;font-family:Retronoid;-inkscape-font-specification:Retronoid;letter-spacing:0px;word-spacing:0px;white-space:pre;shape-inside:url(#rect18153-7);display:inline;fill:#ffffff">
				<path
					d="m 1.5527344,119.66016 v -7.8125 h 9.7656246 v 7.8125 z m 9.7656246,1.95312 v 9.76563 h 7.8125 v 7.8125 H 1.5527344 v -17.57813 z"
					id="path956" />
				<path
					d="m 34.755859,121.61328 h 9.765625 v 9.76563 q 0,7.8125 -7.8125,7.8125 h -7.8125 q -7.8125,0 -7.8125,-7.8125 v -9.76563 h 9.765625 v 9.76563 h 3.90625 z m -13.671875,-1.95312 q 0,-7.8125 7.8125,-7.8125 h 7.8125 q 7.8125,0 7.8125,7.8125 z"
					id="path958" />
				<path
					d="m 59.716797,129.42578 -1.464844,-5.85937 -1.464844,5.85937 z m 7.1875,-7.8125 5.019531,17.57813 h -9.765625 l -0.488281,-1.95313 h -6.835938 l -0.488281,1.95313 h -9.765625 l 5.019531,-17.57813 z m -16.738281,-1.95312 2.226562,-7.8125 h 11.71875 l 2.226563,7.8125 z"
					id="path960" />
				<path
					d="m 83.642578,121.61328 v 9.76563 h 3.90625 v -9.76563 h 9.765625 v 9.76563 q 0,7.8125 -7.8125,7.8125 h -15.625 v -17.57813 z m -9.765625,-1.95312 v -7.8125 h 15.625 q 7.8125,0 7.8125,7.8125 z"
					id="path962" />
				<path
					d="m 99.267578,119.66016 v -7.8125 h 9.765622 v 7.8125 z m 9.765622,1.95312 v 17.57813 h -9.765622 v -17.57813 z"
					id="path964" />
				<path
					d="m 134.42383,121.61328 v 17.57813 h -9.76563 v -9.76563 l -3.90625,-3.90625 v 13.67188 h -9.76562 v -17.57813 z m -23.4375,-1.95312 v -7.8125 h 9.76562 l 3.90625,3.90625 v -3.90625 h 9.76563 v 7.8125 z"
					id="path966" />
				<path
					d="m 146.14258,121.61328 v 9.76563 h 3.90625 v -1.95313 h -1.95313 v -7.8125 h 11.71875 v 17.57813 h -15.625 q -7.8125,0 -7.8125,-7.8125 v -9.76563 z m -9.76563,-1.95312 q 0,-7.8125 7.8125,-7.8125 h 15.625 v 7.8125 z"
					id="path968" />
				<path
					d="m 166.65039,129.42578 q 2.03125,0 3.45703,1.42578 1.42578,1.42578 1.42578,3.45703 0,2.03125 -1.42578,3.45703 -1.42578,1.42579 -3.45703,1.42579 -2.03125,0 -3.45703,-1.42579 -1.42578,-1.42578 -1.42578,-3.45703 0,-2.03125 1.42578,-3.45703 1.42578,-1.42578 3.45703,-1.42578 z"
					id="path970" />
				<path
					d="m 178.36914,129.42578 q 2.03125,0 3.45703,1.42578 1.42578,1.42578 1.42578,3.45703 0,2.03125 -1.42578,3.45703 -1.42578,1.42579 -3.45703,1.42579 -2.03125,0 -3.45703,-1.42579 -1.42578,-1.42578 -1.42578,-3.45703 0,-2.03125 1.42578,-3.45703 1.42578,-1.42578 3.45703,-1.42578 z"
					id="path972" />
				<path
					d="m 190.08789,129.42578 q 2.03125,0 3.45703,1.42578 1.42578,1.42578 1.42578,3.45703 0,2.03125 -1.42578,3.45703 -1.42578,1.42579 -3.45703,1.42579 -2.03125,0 -3.45703,-1.42579 -1.42578,-1.42578 -1.42578,-3.45703 0,-2.03125 1.42578,-3.45703 1.42578,-1.42578 3.45703,-1.42578 z"
					id="path974" />
			</g>
		</g>
    
		<g
			id="g1162"
			style="filter:url(#filter1164)">
			
			<g
				aria-label="LOADING..."
				transform="matrix(0.19398458,0,0,0.19398458,5.9387418,4.3145413)"
				id="g1138"
				style="font-size:40px;line-height:0.95;font-family:Retronoid;-inkscape-font-specification:Retronoid;letter-spacing:0px;word-spacing:0px;white-space:pre;shape-inside:url(#rect18153);fill:#ffffff">
				<path
					d="m 1.5527344,119.66016 v -7.8125 h 9.7656246 v 7.8125 z m 9.7656246,1.95312 v 9.76563 h 7.8125 v 7.8125 H 1.5527344 v -17.57813 z"
					id="path1118" />
				<path
					d="m 34.755859,121.61328 h 9.765625 v 9.76563 q 0,7.8125 -7.8125,7.8125 h -7.8125 q -7.8125,0 -7.8125,-7.8125 v -9.76563 h 9.765625 v 9.76563 h 3.90625 z m -13.671875,-1.95312 q 0,-7.8125 7.8125,-7.8125 h 7.8125 q 7.8125,0 7.8125,7.8125 z"
					id="path1120" />
				<path
					d="m 59.716797,129.42578 -1.464844,-5.85937 -1.464844,5.85937 z m 7.1875,-7.8125 5.019531,17.57813 h -9.765625 l -0.488281,-1.95313 h -6.835938 l -0.488281,1.95313 h -9.765625 l 5.019531,-17.57813 z m -16.738281,-1.95312 2.226562,-7.8125 h 11.71875 l 2.226563,7.8125 z"
					id="path1122" />
				<path
					d="m 83.642578,121.61328 v 9.76563 h 3.90625 v -9.76563 h 9.765625 v 9.76563 q 0,7.8125 -7.8125,7.8125 h -15.625 v -17.57813 z m -9.765625,-1.95312 v -7.8125 h 15.625 q 7.8125,0 7.8125,7.8125 z"
					id="path1124" />
				<path
					d="m 99.267578,119.66016 v -7.8125 h 9.765622 v 7.8125 z m 9.765622,1.95312 v 17.57813 h -9.765622 v -17.57813 z"
					id="path1126" />
				<path
					d="m 134.42383,121.61328 v 17.57813 h -9.76563 v -9.76563 l -3.90625,-3.90625 v 13.67188 h -9.76562 v -17.57813 z m -23.4375,-1.95312 v -7.8125 h 9.76562 l 3.90625,3.90625 v -3.90625 h 9.76563 v 7.8125 z"
					id="path1128" />
				<path
					d="m 146.14258,121.61328 v 9.76563 h 3.90625 v -1.95313 h -1.95313 v -7.8125 h 11.71875 v 17.57813 h -15.625 q -7.8125,0 -7.8125,-7.8125 v -9.76563 z m -9.76563,-1.95312 q 0,-7.8125 7.8125,-7.8125 h 15.625 v 7.8125 z"
					id="path1130" />
				<path
					d="m 166.65039,129.42578 q 2.03125,0 3.45703,1.42578 1.42578,1.42578 1.42578,3.45703 0,2.03125 -1.42578,3.45703 -1.42578,1.42579 -3.45703,1.42579 -2.03125,0 -3.45703,-1.42579 -1.42578,-1.42578 -1.42578,-3.45703 0,-2.03125 1.42578,-3.45703 1.42578,-1.42578 3.45703,-1.42578 z"
					id="path1132" />
				<path
					d="m 178.36914,129.42578 q 2.03125,0 3.45703,1.42578 1.42578,1.42578 1.42578,3.45703 0,2.03125 -1.42578,3.45703 -1.42578,1.42579 -3.45703,1.42579 -2.03125,0 -3.45703,-1.42579 -1.42578,-1.42578 -1.42578,-3.45703 0,-2.03125 1.42578,-3.45703 1.42578,-1.42578 3.45703,-1.42578 z"
					id="path1134" />
				<path
					d="m 190.08789,129.42578 q 2.03125,0 3.45703,1.42578 1.42578,1.42578 1.42578,3.45703 0,2.03125 -1.42578,3.45703 -1.42578,1.42579 -3.45703,1.42579 -2.03125,0 -3.45703,-1.42579 -1.42578,-1.42578 -1.42578,-3.45703 0,-2.03125 1.42578,-3.45703 1.42578,-1.42578 3.45703,-1.42578 z"
					id="path1136" />
			</g>
			<g
				aria-label="LOADING..."
				transform="matrix(0.19398458,0,0,0.19398458,-38.061258,4.3145413)"
				id="g1160"
				style="font-size:40px;line-height:0.95;font-family:Retronoid;-inkscape-font-specification:Retronoid;letter-spacing:0px;word-spacing:0px;white-space:pre;shape-inside:url(#rect18153-7);display:inline;fill:#ffffff">
				<path
					d="m 1.5527344,119.66016 v -7.8125 h 9.7656246 v 7.8125 z m 9.7656246,1.95312 v 9.76563 h 7.8125 v 7.8125 H 1.5527344 v -17.57813 z"
					id="path1140" />
				<path
					d="m 34.755859,121.61328 h 9.765625 v 9.76563 q 0,7.8125 -7.8125,7.8125 h -7.8125 q -7.8125,0 -7.8125,-7.8125 v -9.76563 h 9.765625 v 9.76563 h 3.90625 z m -13.671875,-1.95312 q 0,-7.8125 7.8125,-7.8125 h 7.8125 q 7.8125,0 7.8125,7.8125 z"
					id="path1142" />
				<path
					d="m 59.716797,129.42578 -1.464844,-5.85937 -1.464844,5.85937 z m 7.1875,-7.8125 5.019531,17.57813 h -9.765625 l -0.488281,-1.95313 h -6.835938 l -0.488281,1.95313 h -9.765625 l 5.019531,-17.57813 z m -16.738281,-1.95312 2.226562,-7.8125 h 11.71875 l 2.226563,7.8125 z"
					id="path1144" />
				<path
					d="m 83.642578,121.61328 v 9.76563 h 3.90625 v -9.76563 h 9.765625 v 9.76563 q 0,7.8125 -7.8125,7.8125 h -15.625 v -17.57813 z m -9.765625,-1.95312 v -7.8125 h 15.625 q 7.8125,0 7.8125,7.8125 z"
					id="path1146" />
				<path
					d="m 99.267578,119.66016 v -7.8125 h 9.765622 v 7.8125 z m 9.765622,1.95312 v 17.57813 h -9.765622 v -17.57813 z"
					id="path1148" />
				<path
					d="m 134.42383,121.61328 v 17.57813 h -9.76563 v -9.76563 l -3.90625,-3.90625 v 13.67188 h -9.76562 v -17.57813 z m -23.4375,-1.95312 v -7.8125 h 9.76562 l 3.90625,3.90625 v -3.90625 h 9.76563 v 7.8125 z"
					id="path1150" />
				<path
					d="m 146.14258,121.61328 v 9.76563 h 3.90625 v -1.95313 h -1.95313 v -7.8125 h 11.71875 v 17.57813 h -15.625 q -7.8125,0 -7.8125,-7.8125 v -9.76563 z m -9.76563,-1.95312 q 0,-7.8125 7.8125,-7.8125 h 15.625 v 7.8125 z"
					id="path1152" />
				<path
					d="m 166.65039,129.42578 q 2.03125,0 3.45703,1.42578 1.42578,1.42578 1.42578,3.45703 0,2.03125 -1.42578,3.45703 -1.42578,1.42579 -3.45703,1.42579 -2.03125,0 -3.45703,-1.42579 -1.42578,-1.42578 -1.42578,-3.45703 0,-2.03125 1.42578,-3.45703 1.42578,-1.42578 3.45703,-1.42578 z"
					id="path1154" />
				<path
					d="m 178.36914,129.42578 q 2.03125,0 3.45703,1.42578 1.42578,1.42578 1.42578,3.45703 0,2.03125 -1.42578,3.45703 -1.42578,1.42579 -3.45703,1.42579 -2.03125,0 -3.45703,-1.42579 -1.42578,-1.42578 -1.42578,-3.45703 0,-2.03125 1.42578,-3.45703 1.42578,-1.42578 3.45703,-1.42578 z"
					id="path1156" />
				<path
					d="m 190.08789,129.42578 q 2.03125,0 3.45703,1.42578 1.42578,1.42578 1.42578,3.45703 0,2.03125 -1.42578,3.45703 -1.42578,1.42579 -3.45703,1.42579 -2.03125,0 -3.45703,-1.42579 -1.42578,-1.42578 -1.42578,-3.45703 0,-2.03125 1.42578,-3.45703 1.42578,-1.42578 3.45703,-1.42578 z"
					id="path1158" />
			</g>
		</g>
		<animateTransform 
			attributeName="transform"
			attributeType="XML"
			type="translate"
			from="0 0"
			to="44 0"
			dur="5s"
			repeatCount="indefinite"
		/>
	</g>
</svg>
